# xmcd
#
# Track frame offsets:
#	150
#	9620
#	21491
#	32940
#	47351
#	60199
#	73060
#	86832
#	96554
#	110327
#	124951
#	138402
#	147894
#	162814
#	176043
#	193497
#	208480
#	220736
#	233364
#	248431
#
# Disc length: 3478 seconds
#
# Revision: 0
# Processed by: cddbd v1.5.1PL0 Copyright (c) Steve Scherf et al.
# Submitted via: EasyCDDAExtractor 7.5.2.1
#
DISCID=250d9414
DTITLE=Miguel Aceves Mejía
DYEAR=2004
DGENRE=Mexican
TTITLE0=La cama de piedra/Cuco Sánchez
TTITLE1=Alma de acero/José Alfredo Jiménez
TTITLE2=Cuatro caminos/José Alfredo Jiménez
TTITLE3=El crucifijo de piedra/Hermanos Cantoral
TTITLE4=Anoche estuve llorando/Cuco Sánchez
TTITLE5=Llegando a ti/José Alfredo Jiménez
TTITLE6=La espiga/R. Fuentes, A. Cárdenas
TTITLE7=La Cecilia/Nicardo Castillo
TTITLE8=Grítenme piedras del campo/Cuco Sánchez
TTITLE9=La del rebozo blanco/R. Fuentes, A. Cárdenas
TTITLE10=Tu, solo tu/Felipe Valdés Leal
TTITLE11=El aguacero/Tomás Méndez
TTITLE12=La verdolaga/R. Fuentes, A. Cervantes
TTITLE13=Voy de gallo/Ramiro Hernández
TTITLE14=La malagueña/Elpidio Ramírez
TTITLE15=Mal de amores/R. Fuentes, A. Cervantes
TTITLE16=A los 15 o 20 tragos/José Alfredo Jiménez
TTITLE17=Mamá Lupita/Cuco Sánchez
TTITLE18=Rogaciano/Valeriano Trejo
TTITLE19=Los amigos del mayor/Tomás Méndez
EXTD=
EXTT0=
EXTT1=
EXTT2=
EXTT3=
EXTT4=
EXTT5=
EXTT6=
EXTT7=
EXTT8=
EXTT9=
EXTT10=
EXTT11=
EXTT12=
EXTT13=
EXTT14=
EXTT15=
EXTT16=
EXTT17=
EXTT18=
EXTT19=
PLAYORDER=
